HIERARCHY
ROOT hip
{
  OFFSET 0 0 0
  CHANNELS 6 Xposition Yposition Zposition Zrotation Yrotation Xrotation
  JOINT abdomen
  {
    OFFSET 0 20.6881 -0.73152
    CHANNELS 3 Zrotation Xrotation Yrotation
    JOINT chest
    {
      OFFSET 0 11.7043 -0.48768
      CHANNELS 3 Zrotation Xrotation Yrotation
      JOINT neck
      {
        OFFSET 0 22.1894 -2.19456
        CHANNELS 3 Zrotation Xrotation Yrotation
        JOINT head
        {
          OFFSET -0.24384 7.07133 1.2192
          CHANNELS 3 Zrotation Xrotation Yrotation
          JOINT leftEye
          {
            OFFSET 4.14528 8.04674 8.04672
            CHANNELS 3 Zrotation Xrotation Yrotation
            End Site
            {
              OFFSET 1 0 0
            }
          }
          JOINT rightEye
          {
            OFFSET -3.6576 8.04674 8.04672
            CHANNELS 3 Zrotation Xrotation Yrotation
            End Site
            {
              OFFSET 1 0 0
            }
          }
        }
      }
      JOINT rCollar
      {
        OFFSET -2.68224 19.2634 -4.8768
        CHANNELS 3 Zrotation Xrotation Yrotation
        JOINT rShldr
        {
          OFFSET -8.77824 -1.95073 1.46304
          CHANNELS 3 Zrotation Xrotation Yrotation
          JOINT rForeArm
          {
            OFFSET -28.1742 -1.7115 0.48768
            CHANNELS 3 Zrotation Xrotation Yrotation
            JOINT rHand
            {
              OFFSET -22.5879 0.773209 7.07136
              CHANNELS 3 Zrotation Xrotation Yrotation
              JOINT rThumb1
              {
                OFFSET -1.2192 -0.487915 3.41376
                CHANNELS 3 Zrotation Xrotation Yrotation
                JOINT rThumb2
                {
                  OFFSET -3.37035 -0.52449 3.41376
                  CHANNELS 3 Zrotation Xrotation Yrotation
                  End Site
                  {
                    OFFSET -1.78271 -1.18214 1.43049
                  }
                }
              }
              JOINT rIndex1
              {
                OFFSET -7.75947 0.938293 5.60832
                CHANNELS 3 Zrotation Xrotation Yrotation
                JOINT rIndex2
                {
                  OFFSET -2.54057 -0.884171 1.56538
                  CHANNELS 3 Zrotation Xrotation Yrotation
                  End Site
                  {
                    OFFSET -1.62519 -0.234802 1.16502
                  }
                }
              }
              JOINT rMid1
              {
                OFFSET -8.24714 1.18213 3.41376
                CHANNELS 3 Zrotation Xrotation Yrotation
                JOINT rMid2
                {
                  OFFSET -3.10165 -0.590103 1.0647
                  CHANNELS 3 Zrotation Xrotation Yrotation
                  End Site
                  {
                    OFFSET -2.48547 -0.328903 0.83742
                  }
                }
              }
              JOINT rRing1
              {
                OFFSET -8.82822 0.546677 1.51678
                CHANNELS 3 Zrotation Xrotation Yrotation
                JOINT rRing2
                {
                  OFFSET -2.60934 -0.819778 -0.0198488
                  CHANNELS 3 Zrotation Xrotation Yrotation
                  End Site
                  {
                    OFFSET -2.33842 -0.294052 0.168128
                  }
                }
              }
              JOINT rPinky1
              {
                OFFSET -8.27202 -0.0477905 -0.4584
                CHANNELS 3 Zrotation Xrotation Yrotation
                JOINT rPinky2
                {
                  OFFSET -1.82734 -0.647385 -0.700984
                  CHANNELS 3 Zrotation Xrotation Yrotation
                  End Site
                  {
                    OFFSET -1.69225 -0.51767 -0.607171
                  }
                }
              }
            }
          }
        }
      }
      JOINT lCollar
      {
        OFFSET 2.68224 19.2634 -4.8768
        CHANNELS 3 Zrotation Xrotation Yrotation
        JOINT lShldr
        {
          OFFSET 8.77824 -1.95073 1.46304
          CHANNELS 3 Zrotation Xrotation Yrotation
          JOINT lForeArm
          {
            OFFSET 28.1742 -1.7115 0.48768
            CHANNELS 3 Zrotation Xrotation Yrotation
            JOINT lHand
            {
              OFFSET 22.5879 0.773209 7.07136
              CHANNELS 3 Zrotation Xrotation Yrotation
              JOINT lThumb1
              {
                OFFSET 1.2192 -0.487915 3.41376
                CHANNELS 3 Zrotation Xrotation Yrotation
                JOINT lThumb2
                {
                  OFFSET 3.37035 -0.52449 3.41376
                  CHANNELS 3 Zrotation Xrotation Yrotation
                  End Site
                  {
                    OFFSET 1.78271 -1.18214 1.43049
                  }
                }
              }
              JOINT lIndex1
              {
                OFFSET 7.75947 0.938293 5.60832
                CHANNELS 3 Zrotation Xrotation Yrotation
                JOINT lIndex2
                {
                  OFFSET 2.54057 -0.884171 1.56538
                  CHANNELS 3 Zrotation Xrotation Yrotation
                  End Site
                  {
                    OFFSET 1.62519 -0.234802 1.16502
                  }
                }
              }
              JOINT lMid1
              {
                OFFSET 8.24714 1.18213 3.41376
                CHANNELS 3 Zrotation Xrotation Yrotation
                JOINT lMid2
                {
                  OFFSET 3.10165 -0.590103 1.0647
                  CHANNELS 3 Zrotation Xrotation Yrotation
                  End Site
                  {
                    OFFSET 2.48547 -0.328903 0.83742
                  }
                }
              }
              JOINT lRing1
              {
                OFFSET 8.82822 0.546677 1.51678
                CHANNELS 3 Zrotation Xrotation Yrotation
                JOINT lRing2
                {
                  OFFSET 2.60934 -0.819778 -0.0198488
                  CHANNELS 3 Zrotation Xrotation Yrotation
                  End Site
                  {
                    OFFSET 2.33842 -0.294052 0.168128
                  }
                }
              }
              JOINT lPinky1
              {
                OFFSET 8.27202 -0.0477905 -0.4584
                CHANNELS 3 Zrotation Xrotation Yrotation
                JOINT lPinky2
                {
                  OFFSET 1.82734 -0.647385 -0.700984
                  CHANNELS 3 Zrotation Xrotation Yrotation
                  End Site
                  {
                    OFFSET 1.69225 -0.51767 -0.607171
                  }
                }
              }
            }
          }
        }
      }
    }
  }
  JOINT rButtock
  {
    OFFSET -8.77824 4.35084 1.2192
    CHANNELS 3 Zrotation Xrotation Yrotation
    JOINT rThigh
    {
      OFFSET 0 -1.70687 -2.19456
      CHANNELS 3 Zrotation Xrotation Yrotation
      JOINT rShin
      {
        OFFSET 0 -36.8199 0.73152
        CHANNELS 3 Zrotation Xrotation Yrotation
        JOINT rFoot
        {
          OFFSET 0.73152 -45.1104 -5.12064
          CHANNELS 3 Zrotation Xrotation Yrotation
          End Site
          {
            OFFSET -1.1221 -3.69964 12.103
          }
        }
      }
    }
  }
  JOINT lButtock
  {
    OFFSET 8.77824 4.35084 1.2192
    CHANNELS 3 Zrotation Xrotation Yrotation
    JOINT lThigh
    {
      OFFSET 0 -1.70687 -2.19456
      CHANNELS 3 Zrotation Xrotation Yrotation
      JOINT lShin
      {
        OFFSET 0 -36.8199 0.73152
        CHANNELS 3 Zrotation Xrotation Yrotation
        JOINT lFoot
        {
          OFFSET -0.73152 -45.1104 -5.12064
          CHANNELS 3 Zrotation Xrotation Yrotation
          End Site
          {
            OFFSET 1.1221 -3.69964 12.103
          }
        }
      }
    }
  }
}
MOTION
Frames:	7
Frame Time:	0.00833333
-3.55247 83.6622 43.406 -12.9101 54.5065 54.0385 -9.24173 43.7761 7.01945 -4.46806 -13.5319 0.568413 -0.0567604 9.38781 0.502785 3.64864 -35.7365 2.36178 -0.0 0.0 0.0 -0.0 0.0 0.0 -3.7054e-14 -6.71398e-13 8.6655e-14 80.0559 43.9288 -5.61072 -10.6815 -58.1577 133.808 -6.67142 -56.679 -12.3402 -8.62276e-10 -5.00442e-10 3.24543e-09 -1.63252e-09 -8.50637e-10 5.54939e-09 -8.62273e-10 -5.00437e-10 3.24541e-09 7.73091 5.47488 0.417314 -8.62278e-10 -5.0044e-10 3.24542e-09 2.90554 0.965183 0.102902 -8.62262e-10 -5.00439e-10 3.24542e-09 10.2786 0.731801 0.0259123 -8.62282e-10 -5.00438e-10 3.24543e-09 2.22167 -0.733487 -0.20892 -3.69993e-14 -6.71394e-13 8.64368e-14 -81.6944 39.2032 7.77681 8.55353 -58.8379 -137.769 5.18123 -52.3942 10.5112 4.73316e-10 -3.71143e-09 4.60111e-09 6.01742e-10 -6.51773e-09 7.93591e-09 4.73309e-10 -3.71144e-09 4.60113e-09 -7.73091 5.47488 -0.417314 4.73318e-10 -3.71143e-09 4.60112e-09 -2.90554 0.965183 -0.102902 4.73308e-10 -3.71143e-09 4.60112e-09 -10.2786 0.731801 -0.0259123 4.7332e-10 -3.71143e-09 4.6011e-09 -2.22167 -0.733487 0.20892 -2.03217e-16 0.0 -3.88251e-19 20.5065 -54.061 43.0163 0.0520749 0.183387 0.309973 -69.705 -31.1612 -78.2888 2.03217e-16 0.0 3.88251e-19 51.3993 -68.9526 56.4109 0.00627514 4.55093 0.0984871 21.8492 19.8653 -47.4187
-3.61448 83.6991 43.3821 -12.6319 54.5833 54.682 -9.79757 43.8868 8.00365 -4.05736 -13.2774 0.823231 -0.291609 10.1429 0.222471 3.39536 -34.9532 1.65782 -0.0 0.0 0.0 -0.0 0.0 0.0 -1.98019e-13 3.56869e-13 -1.49415e-13 82.1607 45.0505 -2.54911 -11.0998 -58.0152 133.012 -7.08817 -57.6962 -12.8369 -5.35848e-10 -8.43729e-10 4.15061e-09 -1.11912e-09 -1.46933e-09 7.11332e-09 -5.35844e-10 -8.43728e-10 4.1506e-09 7.73091 5.47488 0.417314 -5.35849e-10 -8.4373e-10 4.1506e-09 2.90554 0.965183 0.102902 -5.35835e-10 -8.4373e-10 4.1506e-09 10.2786 0.731801 0.0259123 -5.35855e-10 -8.43729e-10 4.15061e-09 2.22167 -0.733487 -0.20892 -1.97976e-13 3.56887e-13 -1.49589e-13 -81.1369 43.0392 2.77903 9.86014 -58.4602 -135.342 5.43163 -53.1997 10.8259 -3.18575e-10 -3.99371e-09 5.05582e-09 -7.78641e-10 -6.94793e-09 8.68186e-09 -3.18582e-10 -3.99372e-09 5.05584e-09 -7.73091 5.47488 -0.417314 -3.18574e-10 -3.99371e-09 5.05583e-09 -2.90554 0.965183 -0.102902 -3.18587e-10 -3.99371e-09 5.05583e-09 -10.2786 0.731801 -0.0259123 -3.18573e-10 -3.99371e-09 5.05581e-09 -2.22167 -0.733487 0.20892 -2.03217e-16 0.0 -3.88251e-19 20.5786 -54.3297 43.0095 0.0554207 0.198738 0.34093 -69.4234 -30.9833 -78.1277 2.03217e-16 0.0 3.88251e-19 52.0242 -69.1332 57.0728 0.00595338 4.63397 0.0935267 21.7406 19.6077 -47.6102
-3.72927 83.7024 43.346 -12.7218 54.8123 54.9867 -10.3482 43.9877 8.97033 -3.66522 -12.9905 1.0734 -0.460258 10.9658 -0.0619921 3.06487 -34.2795 0.922351 -0.0 0.0 0.0 -0.0 0.0 0.0 -3.3314e-13 1.30685e-12 -3.61604e-13 83.7029 46.0436 0.502249 -11.4888 -57.8758 132.269 -7.52812 -58.6873 -13.3539 -1.94792e-10 -1.12011e-09 4.73364e-09 -5.65312e-10 -1.96969e-09 8.1237e-09 -1.94786e-10 -1.12011e-09 4.73364e-09 7.73091 5.47488 0.417314 -1.94791e-10 -1.12011e-09 4.73365e-09 2.90554 0.965183 0.102902 -1.94779e-10 -1.12011e-09 4.73364e-09 10.2786 0.731801 0.0259123 -1.94799e-10 -1.12011e-09 4.73365e-09 2.22167 -0.733487 -0.20892 -3.3311e-13 1.30688e-12 -3.61733e-13 -79.4452 46.6552 -2.59143 11.113 -58.0309 -132.981 5.73398 -54.1161 11.2006 -1.09597e-09 -3.95867e-09 5.10679e-09 -2.11573e-09 -6.82839e-09 8.73384e-09 -1.09598e-09 -3.95867e-09 5.10681e-09 -7.73091 5.47488 -0.417314 -1.09597e-09 -3.95867e-09 5.1068e-09 -2.90554 0.965183 -0.102902 -1.09599e-09 -3.95867e-09 5.1068e-09 -10.2786 0.731801 -0.0259123 -1.09597e-09 -3.95867e-09 5.10679e-09 -2.22167 -0.733487 0.20892 -2.03217e-16 0.0 -3.88251e-19 20.6195 -54.7194 42.9785 0.0589524 0.200791 0.373946 -69.1362 -30.7925 -77.9635 2.03217e-16 0.0 3.88251e-19 52.8512 -69.4375 57.9555 0.00583151 4.75271 0.0894438 21.6664 19.4379 -47.7378
-3.80102 83.7003 43.2811 -12.5245 54.8761 55.4283 -10.6168 44.0346 9.49817 -3.4008 -12.6641 1.22867 -0.590366 11.7338 -0.264221 2.8327 -34.0682 0.41206 -0.0 0.0 0.0 -0.0 0.0 0.0 -3.75328e-13 1.79222e-12 -4.60336e-13 84.2444 46.7119 2.89758 -11.7447 -57.7799 131.777 -7.84272 -59.3498 -13.7194 -2.38784e-12 -1.17082e-09 4.57515e-09 -2.29276e-10 -2.067e-09 7.8557e-09 -2.38104e-12 -1.17083e-09 4.57514e-09 7.73091 5.47488 0.417314 -2.38646e-12 -1.17083e-09 4.57515e-09 2.90554 0.965183 0.102902 -2.37578e-12 -1.17083e-09 4.57514e-09 10.2786 0.731801 0.0259123 -2.39536e-12 -1.17083e-09 4.57515e-09 2.22167 -0.733487 -0.20892 -3.75308e-13 1.79226e-12 -4.60435e-13 -77.3493 48.8643 -6.72544 11.9282 -57.7117 -131.423 6.03252 -54.9721 11.5665 -1.47309e-09 -3.51243e-09 4.60175e-09 -2.73979e-09 -6.02312e-09 7.84808e-09 -1.47309e-09 -3.51243e-09 4.60177e-09 -7.73091 5.47488 -0.417314 -1.47309e-09 -3.51243e-09 4.60176e-09 -2.90554 0.965183 -0.102902 -1.4731e-09 -3.51243e-09 4.60175e-09 -10.2786 0.731801 -0.0259123 -1.47309e-09 -3.51243e-09 4.60174e-09 -2.22167 -0.733487 0.20892 -2.03217e-16 0.0 -3.88251e-19 20.7091 -55.38 42.9408 0.0627881 0.183139 0.41037 -68.8443 -30.6727 -77.7668 2.03217e-16 0.0 3.88251e-19 54.3662 -69.973 59.4786 0.00662394 4.94875 0.0902099 21.7451 19.5986 -47.6432
-3.87197 83.7192 43.2474 -12.1441 54.8661 56.1472 -10.4668 43.9792 9.40326 -3.29438 -12.2717 1.25566 -0.670027 12.3789 -0.355056 2.66005 -34.3058 0.165005 -0.0 0.0 0.0 -0.0 0.0 0.0 -2.31996e-13 1.54033e-12 -3.60961e-13 83.5486 47.0891 4.52375 -11.8414 -57.7425 131.591 -7.97976 -59.6264 -13.8775 -1.55268e-11 -8.50739e-10 2.99799e-09 -1.75783e-10 -1.50221e-09 5.14393e-09 -1.55202e-11 -8.50743e-10 2.99799e-09 7.73091 5.47488 0.417314 -1.55258e-11 -8.50744e-10 2.998e-09 2.90554 0.965183 0.102902 -1.55163e-11 -8.50744e-10 2.99799e-09 10.2786 0.731801 0.0259123 -1.55343e-11 -8.50743e-10 2.998e-09 2.22167 -0.733487 -0.20892 -2.31983e-13 1.54036e-12 -3.61043e-13 -75.627 49.5584 -8.65538 12.2409 -57.5801 -130.82 6.35899 -55.8659 11.9635 -1.25606e-09 -2.18551e-09 2.90836e-09 -2.28889e-09 -3.73289e-09 4.94576e-09 -1.25606e-09 -2.1855e-09 2.90838e-09 -7.73091 5.47488 -0.417314 -1.25606e-09 -2.18551e-09 2.90837e-09 -2.90554 0.965183 -0.102902 -1.25607e-09 -2.1855e-09 2.90837e-09 -10.2786 0.731801 -0.0259123 -1.25606e-09 -2.18551e-09 2.90836e-09 -2.22167 -0.733487 0.20892 -2.03217e-16 0.0 -3.88251e-19 20.8238 -56.4261 42.8657 0.0671609 0.128588 0.452193 -68.5534 -30.6612 -77.522 2.03217e-16 0.0 3.88251e-19 56.9059 -70.839 62.1261 0.0091727 5.29182 0.0998203 22.1823 20.2696 -47.3962
-4.1457 83.8114 43.0183 -12.0847 55.5485 57.402 -10.0663 43.8597 8.93405 -3.2852 -11.8254 1.20612 -0.695234 12.9784 -0.381855 2.46884 -34.8424 0.0469029 -0.0 0.0 0.0 -0.0 0.0 0.0 3.61742e-14 8.13758e-13 -1.31508e-13 81.9756 47.2947 5.64359 -11.8371 -57.7438 131.6 -8.0035 -59.6725 -13.9047 -1.42676e-10 -2.78792e-10 4.14291e-10 -2.6849e-10 -4.88216e-10 6.99e-10 -1.4267e-10 -2.78794e-10 4.1429e-10 7.73091 5.47488 0.417314 -1.42676e-10 -2.78795e-10 4.14295e-10 2.90554 0.965183 0.102902 -1.42667e-10 -2.78795e-10 4.14291e-10 10.2786 0.731801 0.0259123 -1.42683e-10 -2.78794e-10 4.14301e-10 2.22167 -0.733487 -0.20892 3.61827e-14 8.13762e-13 -1.3158e-13 -74.2326 49.4525 -9.04375 12.2726 -57.5663 -130.759 6.73757 -56.8399 12.4187 -6.8097e-10 -1.76112e-10 3.05089e-10 -1.18134e-09 -2.84559e-10 4.94842e-10 -6.80975e-10 -1.76105e-10 3.05105e-10 -7.73091 5.47488 -0.417314 -6.80968e-10 -1.76111e-10 3.05094e-10 -2.90554 0.965183 -0.102902 -6.80981e-10 -1.76109e-10 3.05092e-10 -10.2786 0.731801 -0.0259123 -6.80969e-10 -1.76111e-10 3.05079e-10 -2.22167 -0.733487 0.20892 -2.03217e-16 0.0 -3.88251e-19 20.9336 -57.7565 42.7667 0.0720486 0.0457173 0.498151 -68.26 -30.7071 -77.245 2.03217e-16 0.0 3.88251e-19 60.4436 -71.9003 65.8605 0.0126833 5.74021 0.115201 22.849 21.2923 -47.0548
-4.28775 83.9933 42.8505 -11.103 55.6248 59.6394 -9.58969 43.7682 8.31413 -3.34488 -11.3761 1.11772 -0.709314 13.6277 -0.372254 2.36229 -35.8283 0.0486209 -0.0 0.0 0.0 -0.0 0.0 0.0 2.66378e-13 2.90698e-14 8.85826e-14 80.0466 47.3034 6.12827 -11.7569 -57.7742 131.754 -7.92079 -59.5052 -13.8091 -3.24481e-10 3.07662e-10 -1.96153e-09 -4.63932e-10 5.51797e-10 -3.38991e-09 -3.24476e-10 3.07661e-10 -1.96153e-09 7.73091 5.47488 0.417314 -3.24482e-10 3.07661e-10 -1.96153e-09 2.90554 0.965183 0.102902 -3.24474e-10 3.07661e-10 -1.96153e-09 10.2786 0.731801 0.0259123 -3.24488e-10 3.07662e-10 -1.96152e-09 2.22167 -0.733487 -0.20892 2.66379e-13 2.90514e-14 8.85077e-14 -73.226 48.7578 -8.28672 12.1023 -57.6376 -131.089 7.07065 -57.6425 12.8145 -6.93473e-12 1.60805e-09 -1.99418e-09 8.22677e-11 2.76874e-09 -3.42832e-09 -6.93903e-12 1.60806e-09 -1.99416e-09 -7.73091 5.47488 -0.417314 -6.93237e-12 1.60805e-09 -1.99418e-09 -2.90554 0.965183 -0.102902 -6.94259e-12 1.60806e-09 -1.99418e-09 -10.2786 0.731801 -0.0259123 -6.93301e-12 1.60805e-09 -1.99419e-09 -2.22167 -0.733487 0.20892 -2.03217e-16 0.0 -3.88251e-19 21.1183 -59.1964 42.7352 0.0771216 -0.0332198 0.544715 -67.9513 -30.7625 -76.9525 2.03217e-16 0.0 3.88251e-19 64.8452 -72.92 70.2416 0.0155629 6.16827 0.129703 23.3533 22.4035 -46.4311
